HIERARCHY
ROOT root
{
	OFFSET 0.000000 0.000000 0.000000
	CHANNELS 6 Xposition Yposition Zposition Zrotation Yrotation Xrotation
	JOINT lhip
	{
		OFFSET 0.058581 -0.082280 -0.017664
		CHANNELS 3 Zrotation Yrotation Xrotation
		JOINT lknee
		{
			OFFSET 0.043451 -0.386469 0.008037
			CHANNELS 3 Zrotation Yrotation Xrotation
			JOINT lankle
			{
				OFFSET -0.014790 -0.426874 -0.037428
				CHANNELS 3 Zrotation Yrotation Xrotation
				JOINT ltoe
				{
					OFFSET 0.041054 -0.060286 0.122042
					CHANNELS 3 Zrotation Yrotation Xrotation
					End Site
					{
						OFFSET 0.000000 0.000000 0.000000
					}
				}
			}
		}
	}
	JOINT rhip
	{
		OFFSET -0.060310 -0.090513 -0.013543
		CHANNELS 3 Zrotation Yrotation Xrotation
		JOINT rknee
		{
			OFFSET -0.043257 -0.383688 -0.004843
			CHANNELS 3 Zrotation Yrotation Xrotation
			JOINT rankle
			{
				OFFSET 0.019056 -0.420046 -0.034562
				CHANNELS 3 Zrotation Yrotation Xrotation
				JOINT rtoe
				{
					OFFSET -0.034840 -0.062106 0.130323
					CHANNELS 3 Zrotation Yrotation Xrotation
					End Site
					{
						OFFSET 0.000000 0.000000 0.000000
					}
				}
			}
		}
	}
	JOINT lowerback
	{
		OFFSET 0.004439 0.124404 -0.038385
		CHANNELS 3 Zrotation Yrotation Xrotation
		JOINT upperback
		{
			OFFSET 0.004488 0.137956 0.026820
			CHANNELS 3 Zrotation Yrotation Xrotation
			JOINT chest
			{
				OFFSET -0.002265 0.056032 0.002855
				CHANNELS 3 Zrotation Yrotation Xrotation
				JOINT lowerneck
				{
					OFFSET -0.013390 0.211636 -0.033468
					CHANNELS 3 Zrotation Yrotation Xrotation
					JOINT upperneck
					{
						OFFSET 0.010113 0.088937 0.050410
						CHANNELS 3 Zrotation Yrotation Xrotation
						End Site
						{
							OFFSET 0.000000 0.000000 0.000000
						}
					}
				}
				JOINT lclavicle
				{
					OFFSET 0.071702 0.114000 -0.018898
					CHANNELS 3 Zrotation Yrotation Xrotation
					JOINT lshoulder
					{
						OFFSET 0.122921 0.045205 -0.019046
						CHANNELS 3 Zrotation Yrotation Xrotation
						JOINT lelbow
						{
							OFFSET 0.255332 -0.015649 -0.022946
							CHANNELS 3 Zrotation Yrotation Xrotation
							JOINT lwrist
							{
								OFFSET 0.265709 0.012698 -0.007375
								CHANNELS 3 Zrotation Yrotation Xrotation
								End Site
								{
									OFFSET 0.000000 0.000000 0.000000
								}
							}
						}
					}
				}
				JOINT rclavicle
				{
					OFFSET -0.082954 0.112472 -0.023707
					CHANNELS 3 Zrotation Yrotation Xrotation
					JOINT rshoulder
					{
						OFFSET -0.113228 0.046853 -0.008472
						CHANNELS 3 Zrotation Yrotation Xrotation
						JOINT relbow
						{
							OFFSET -0.260127 -0.014369 -0.031269
							CHANNELS 3 Zrotation Yrotation Xrotation
							JOINT rwrist
							{
								OFFSET -0.269108 0.006794 -0.006027
								CHANNELS 3 Zrotation Yrotation Xrotation
								End Site
								{
									OFFSET 0.000000 0.000000 0.000000
								}
							}
						}
					}
				}
			}
		}
	}
}
MOTION
Frames: 8
Frame Time: 0.033333
-0.934320 0.485579 0.969284 52.678878 -2.951442 86.838441 -8.875853 -0.243426 -6.655706 -6.279841 5.377866 9.422241 9.471377 20.434280 -15.547534 0.000000 -0.000000 0.000000 -7.472213 2.010272 -39.108963 2.422548 0.656414 43.705173 6.214897 -5.110649 -4.356160 0.000000 -0.000000 0.000000 -5.039760 -2.468528 9.542620 -1.316903 -4.562220 15.048435 -2.912602 -1.018972 -2.747108 3.030267 1.915070 -3.390131 4.418616 5.152252 3.737021 -22.944421 -5.529066 -4.641719 -48.073139 -14.102464 17.229543 68.259329 -72.149432 -49.826873 8.113546 -13.702386 2.212776 26.763887 5.440646 0.736374 53.924160 1.919214 18.589090 -15.142482 70.225927 2.957738 -7.985909 12.113836 1.305622 
-0.925467 0.476750 0.970301 52.607289 -2.919485 86.675002 -8.833966 -0.086571 -5.703303 -6.122041 5.179133 9.593856 9.352742 20.475295 -16.242846 0.000000 -0.000000 0.000000 -6.862684 2.104184 -38.986449 1.923296 0.385694 38.761161 6.662070 -4.929468 -1.136186 0.000000 -0.000000 0.000000 -5.154836 -2.517022 9.477252 -1.209780 -4.492769 15.381701 -3.016368 -1.053056 -2.928142 2.897698 1.943631 -3.329864 4.448426 5.218311 3.742612 -23.440887 -5.484370 -4.390079 -48.231242 -14.039747 17.554404 66.805307 -71.631166 -48.483010 8.685999 -13.787954 2.655365 26.976113 5.410723 0.713597 53.799596 2.146279 18.469594 -15.273463 70.662221 2.529810 -8.202170 12.208938 1.592493 
-0.916709 0.468359 0.971320 52.463442 -3.038840 86.643058 -8.985458 -0.051838 -4.864769 -5.934005 5.069813 9.635682 9.317327 20.605378 -16.941024 0.000000 -0.000000 0.000000 -6.386844 2.311991 -38.797213 1.301306 -0.059880 34.328699 7.030010 -5.170513 2.728659 0.000000 -0.000000 0.000000 -5.323244 -2.619894 9.262867 -1.152676 -4.379762 15.599937 -3.166524 -1.021643 -3.079341 2.803103 1.928994 -3.288793 4.432567 5.262263 3.857935 -23.882082 -5.440886 -4.175591 -48.479151 -13.783874 17.929813 65.037209 -71.016416 -46.509891 9.085836 -13.882759 3.293791 27.096454 5.422748 0.697432 53.801921 2.376205 18.391665 -15.487824 71.060710 2.017519 -8.261485 12.260484 1.740914 
-0.907761 0.460403 0.972260 52.433677 -3.221115 86.618446 -9.322513 -0.195561 -4.002699 -5.660050 4.903429 9.605004 9.390156 20.950160 -17.704759 0.000000 -0.000000 0.000000 -6.124402 2.526814 -38.622252 0.787867 -0.761538 30.932620 7.309561 -5.582218 6.216174 0.000000 -0.000000 0.000000 -5.414939 -2.822733 8.990848 -1.142010 -4.303675 15.854862 -3.364705 -0.989182 -3.253354 2.677294 1.714751 -3.324772 4.453307 5.422107 4.067273 -24.415119 -5.458670 -3.900954 -48.635355 -13.401667 18.227078 63.031440 -70.358522 -44.457792 9.719974 -14.019846 3.864166 27.154964 5.503712 0.682451 53.828525 2.640737 18.289926 -15.607660 71.463425 1.463157 -8.202173 12.322544 1.686737 
-0.898473 0.452197 0.973473 52.609927 -3.223266 86.336627 -9.484862 -0.243605 -2.791750 -5.458382 4.425718 9.504642 9.444961 21.347478 -18.422167 0.000000 -0.000000 0.000000 -5.940695 2.944351 -38.117244 0.459136 -1.760006 28.590687 7.359525 -6.211297 8.873730 0.000000 -0.000000 0.000000 -5.219792 -3.198992 8.999046 -1.134448 -4.254924 16.120469 -3.588710 -0.985510 -3.447359 2.427647 1.343322 -3.337531 4.514042 5.784272 4.047541 -25.270956 -5.641895 -3.486966 -48.461419 -12.909097 18.313948 61.082429 -69.701148 -42.462870 11.078150 -14.350315 4.202099 27.203653 5.750989 0.676649 53.691224 2.912919 18.035033 -15.172969 71.922944 1.385635 -8.368214 12.439377 1.395242 
-0.889022 0.444136 0.974420 52.983987 -3.181471 86.068206 -9.618017 -0.313013 -1.532784 -5.279999 3.861476 9.281688 9.482051 21.679421 -19.053275 0.000000 -0.000000 0.000000 -5.898880 3.300247 -37.700360 0.211871 -2.889825 27.262533 7.410434 -6.945555 11.621042 0.000000 -0.000000 0.000000 -4.891740 -3.722422 9.067229 -1.149593 -4.309047 16.186415 -3.831217 -1.004797 -3.523300 2.188243 0.960905 -3.302240 4.588041 6.263362 3.958414 -26.096530 -5.951334 -3.064735 -48.360843 -12.194225 18.207573 59.585114 -68.976540 -40.794806 12.620901 -14.683391 4.434015 27.147404 6.177909 0.757389 53.463315 3.238889 17.720375 -13.983200 72.384234 2.290311 -8.892251 12.696262 1.652250 
-0.879745 0.436334 0.974754 53.347081 -3.360222 86.041863 -9.926091 -0.430556 -0.433517 -5.183962 3.382910 8.806750 9.571080 21.881435 -19.480065 0.000000 -0.000000 0.000000 -5.999746 3.349873 -37.604161 -0.024813 -3.621299 26.584220 7.397317 -7.478781 14.693730 0.000000 -0.000000 0.000000 -4.809039 -4.128520 8.786632 -1.183848 -4.390604 16.266959 -4.059285 -0.984837 -3.454181 2.116872 0.600681 -3.396697 4.702266 6.627155 4.101617 -26.601339 -6.216144 -2.790585 -48.509319 -11.516269 18.156636 58.018972 -68.213197 -39.258972 13.615622 -14.777397 4.478720 27.115263 6.516820 0.750568 53.188708 3.636972 17.526117 -12.647156 72.810647 3.510544 -9.212556 12.967953 2.442705 
-0.870713 0.428237 0.974746 53.646502 -3.671049 86.216125 -10.262737 -0.421715 0.504660 -5.190350 2.882534 8.216194 9.620457 22.006358 -19.826354 0.000000 -0.000000 0.000000 -6.098926 3.233182 -37.659802 -0.219169 -3.874726 26.399703 7.594235 -7.850117 16.489269 0.000000 -0.000000 0.000000 -4.903977 -4.355848 8.234736 -1.251340 -4.402129 16.323319 -4.203079 -0.934448 -3.296950 2.113564 0.179016 -3.573560 4.877518 6.893747 4.460869 -26.965243 -6.420337 -2.590641 -48.585612 -10.934512 18.155270 55.762583 -67.657831 -37.083969 14.716214 -14.897782 4.479785 27.131386 6.710973 0.652644 52.978192 3.949667 17.345620 -11.394747 73.233663 4.416587 -9.757393 13.228599 2.748396 
